<?xml version="1.0" encoding="UTF-8" standalone="no"?>
<!-- Created with Inkscape (http://www.inkscape.org/) -->

<svg
   width="19.642mm"
   height="26.153mm"
   viewBox="0 0 19.642 26.153"
   version="1.1"
   id="svg1"
   inkscape:version="1.2 (dc2aeda, 2022-05-15)"
   sodipodi:docname="jfr_favico.svg"
   xmlns:inkscape="http://www.inkscape.org/namespaces/inkscape"
   xmlns:sodipodi="http://sodipodi.sourceforge.net/DTD/sodipodi-0.dtd"
   xmlns="http://www.w3.org/2000/svg"
   xmlns:svg="http://www.w3.org/2000/svg">
  <sodipodi:namedview
     id="namedview1"
     pagecolor="#ffffff"
     bordercolor="#000000"
     borderopacity="0.25"
     inkscape:showpageshadow="2"
     inkscape:pageopacity="0.0"
     inkscape:pagecheckerboard="0"
     inkscape:deskcolor="#d1d1d1"
     inkscape:document-units="mm"
     inkscape:zoom="3.7946874"
     inkscape:cx="54.154659"
     inkscape:cy="71.942686"
     inkscape:window-width="1512"
     inkscape:window-height="916"
     inkscape:window-x="0"
     inkscape:window-y="38"
     inkscape:window-maximized="1"
     inkscape:current-layer="group-MC2"
     showgrid="false" />
  <defs
     id="defs1">
    <clipPath
       clipPathUnits="userSpaceOnUse"
       id="clipPath55">
      <path
         d="m 60,254.071 h 186.142 v 81.834 H 60 Z"
         transform="translate(-72.368302,-314.01131)"
         id="path55" />
    </clipPath>
    <clipPath
       clipPathUnits="userSpaceOnUse"
       id="clipPath57">
      <path
         d="m 60,254.071 h 186.142 v 81.834 H 60 Z"
         transform="translate(-88.986602,-281.66781)"
         id="path57" />
    </clipPath>
    <clipPath
       clipPathUnits="userSpaceOnUse"
       id="clipPath59">
      <path
         d="m 60,254.071 h 186.142 v 81.834 H 60 Z"
         transform="translate(-113.26731,-281.61861)"
         id="path59" />
    </clipPath>
    <clipPath
       clipPathUnits="userSpaceOnUse"
       id="clipPath61">
      <path
         d="m 60,254.071 h 186.142 v 81.834 H 60 Z"
         transform="translate(-144.151,-313.60471)"
         id="path61" />
    </clipPath>
    <clipPath
       clipPathUnits="userSpaceOnUse"
       id="clipPath63">
      <path
         d="m 60,254.071 h 186.142 v 81.834 H 60 Z"
         transform="translate(-153.81531,-324.69201)"
         id="path63" />
    </clipPath>
    <clipPath
       clipPathUnits="userSpaceOnUse"
       id="clipPath65">
      <path
         d="m 60,254.071 h 186.142 v 81.834 H 60 Z"
         transform="translate(-170.23041,-281.66781)"
         id="path65" />
    </clipPath>
    <clipPath
       clipPathUnits="userSpaceOnUse"
       id="clipPath67">
      <path
         d="m 60,254.071 h 186.142 v 81.834 H 60 Z"
         transform="translate(-133.86951,-256.51731)"
         id="path67" />
    </clipPath>
    <clipPath
       clipPathUnits="userSpaceOnUse"
       id="clipPath69">
      <path
         d="m 60,254.071 h 186.142 v 81.834 H 60 Z"
         transform="translate(-157.2211,-324.93851)"
         id="path69" />
    </clipPath>
    <clipPath
       clipPathUnits="userSpaceOnUse"
       id="clipPath71">
      <path
         d="m 60,254.071 h 186.142 v 81.834 H 60 Z"
         transform="translate(-237.57211,-314.39321)"
         id="path71" />
    </clipPath>
    <clipPath
       clipPathUnits="userSpaceOnUse"
       id="clipPath73">
      <path
         d="m 60,254.071 h 186.142 v 81.834 H 60 Z"
         transform="translate(-240.3118,-309.90311)"
         id="path73" />
    </clipPath>
    <clipPath
       clipPathUnits="userSpaceOnUse"
       id="clipPath75">
      <path
         d="m 60,254.071 h 186.142 v 81.834 H 60 Z"
         transform="translate(-207.92491,-256.10251)"
         id="path75" />
    </clipPath>
  </defs>
  <g
     inkscape:label="Layer 1"
     inkscape:groupmode="layer"
     id="layer1"
     transform="translate(-77.543135,-59.365866)">
    <g
       id="group-MC2"
       transform="matrix(0.26458333,0,0,0.26458333,58.376278,-117.13417)">
      <g
         id="g2560"
         transform="translate(-1.2365292,-17.913741)">
        <path
           id="path54"
           d="M 0,0 V -27.484 C 0,-33.551 -4.478,-38.3 -10.2,-38.3 h -1.552 c -0.339,0 -0.616,0.277 -0.616,0.616 v 3.105 c 0,0.338 0.277,0.616 0.616,0.616 h 1.552 c 3.227,0 5.858,2.907 5.858,6.479 V 0 c 0,0.339 0.277,0.616 0.615,0.616 h 3.111 C -0.277,0.616 0,0.339 0,0"
           style="fill:#3d91c2;fill-opacity:1;fill-rule:nonzero;stroke:none"
           transform="matrix(1.3333333,0,0,-1.3333333,96.491067,703.83827)"
           clip-path="url(#clipPath55)" />
        <path
           id="path60"
           d="m 0,0 v -3.018 c 0,-0.339 -0.277,-0.616 -0.616,-0.616 h -1.552 c -2.661,0 -4.977,-2.02 -5.673,-4.823 0.203,0.018 0.406,0.025 0.616,0.025 h 5.543 c 0.339,0 0.616,-0.278 0.616,-0.616 v -3.105 c 0,-0.338 -0.277,-0.616 -0.616,-0.616 h -5.543 c -0.807,0 -0.807,-0.191 -0.807,-0.406 v -32.344 c 0,-0.338 -0.271,-0.616 -0.616,-0.616 h -3.104 c -0.339,0 -0.616,0.278 -0.616,0.616 V -10.2 c 0,5.962 4.576,10.816 10.2,10.816 h 1.552 C -0.277,0.616 0,0.339 0,0"
           style="fill:#86ce4c;fill-opacity:1;fill-rule:nonzero;stroke:none"
           transform="matrix(1.3333333,0,0,-1.3333333,118.20133,704.3804)"
           clip-path="url(#clipPath61)" />
        <path
           id="path66"
           d="M 0,0 C -0.577,0 -1.121,0.269 -1.471,0.729 L -7.001,8 c -0.617,0.813 -0.46,1.972 0.352,2.589 0.813,0.619 1.971,0.46 2.59,-0.351 L 0,4.9 4.059,10.238 c 0.619,0.811 1.777,0.97 2.59,0.351 C 7.461,9.972 7.618,8.813 7.001,8 L 1.471,0.729 C 1.121,0.269 0.577,0 0,0"
           style="fill:#86ce4c;fill-opacity:1;fill-rule:nonzero;stroke:none"
           transform="matrix(1.3333333,0,0,-1.3333333,104.49267,780.49693)"
           clip-path="url(#clipPath67)" />
        <path
           id="path68"
           d="m 0,0 c -0.557,0 -1.109,0.252 -1.472,0.729 l -4.059,5.338 -4.06,-5.338 c -0.617,-0.812 -1.777,-0.97 -2.589,-0.352 -0.812,0.618 -0.971,1.778 -0.353,2.59 l 5.531,7.271 c 0.35,0.459 0.894,0.729 1.471,0.729 0.577,0 1.121,-0.27 1.47,-0.729 L 1.469,2.967 C 2.087,2.155 1.93,0.995 1.118,0.377 0.783,0.123 0.39,0 0,0"
           style="fill:#3d91c2;fill-opacity:1;fill-rule:nonzero;stroke:none"
           transform="matrix(1.3333333,0,0,-1.3333333,101.05528,702.97204)"
           clip-path="url(#clipPath69)" />
        <path
           id="path74"
           d="m 0,0 h -52.494 c -3.163,0 -5.727,2.563 -5.727,5.725 v 3.606 c 0,3.161 2.564,5.726 5.727,5.726 H 0 c 3.162,0 5.726,-2.565 5.726,-5.726 V 5.725 C 5.726,2.563 3.162,0 0,0"
           style="fill:#df681b;fill-opacity:1;fill-rule:nonzero;stroke:none"
           transform="matrix(0,-1.3333333,-1.3333333,0,141.59347,699.12164)"
           clip-path="url(#clipPath75)" />
        <path
           id="path76"
           d="m 136.91464,767.10435 v -1.79687 c 0,-0.51563 -0.17187,-0.67188 -0.67187,-0.67188 h -3.09375 v -0.35937 c 0,-0.65625 0.28125,-0.9375 0.8125,-1.20313 l 2.1875,-1.01562 c 0.5625,-0.28125 0.76562,-0.625 0.76562,-1.46875 v -1.71875 c 0,-0.53125 -0.34375,-0.64063 -0.78125,-0.42188 l -2.71875,1.4375 c -0.26562,0.125 -0.48437,0.26563 -0.6875,0.4375 -0.60937,-1.09375 -1.73437,-1.73437 -3.28125,-1.73437 -2.46875,0 -3.84375,1.5625 -3.84375,3.96875 v 4.54687 c 0,0.51563 0.17188,0.67188 0.67188,0.67188 h 9.96875 c 0.5,0 0.67187,-0.15625 0.67187,-0.67188 z m -6.42187,-2.46875 h -2.125 v -1.71875 c 0,-0.6875 0.40625,-1.04687 1.0625,-1.04687 0.64062,0 1.0625,0.375 1.0625,1.04687 z m 6.42187,-9.32812 v -6.8125 c 0,-0.5 -0.17187,-0.67188 -0.67187,-0.67188 h -1.45313 c -0.5,0 -0.67187,0.17188 -0.67187,0.67188 v 4.34375 h -1.51563 v -3.35938 c 0,-0.51562 -0.1875,-0.6875 -0.6875,-0.6875 h -1.42187 c -0.51563,0 -0.6875,0.17188 -0.6875,0.6875 v 3.35938 h -1.4375 v -4.20313 c 0,-0.51562 -0.15625,-0.6875 -0.67188,-0.6875 h -1.42187 c -0.5,0 -0.67188,0.17188 -0.67188,0.6875 v 6.67188 c 0,0.51562 0.17188,0.67187 0.67188,0.67187 h 9.96875 c 0.5,0 0.67187,-0.15625 0.67187,-0.67187 z m 0,-10.63672 v -1.625 c 0,-0.51562 -0.15625,-0.6875 -0.65625,-0.6875 h -2.28125 c -1.09375,0 -1.89062,0.0781 -4.1875,0.65625 v -0.15625 c 0.57813,-0.15625 2.03125,-0.65625 2.64063,-0.98438 l 1.8125,-0.95312 c 0.34375,-0.17188 0.4375,-0.32812 0.4375,-0.76562 v -1.0625 c 0,-0.42188 -0.125,-0.59376 -0.4375,-0.75 l -1.8125,-0.90626 c -0.64063,-0.32812 -2.10938,-0.90624 -2.64063,-1.07812 v -0.17188 c 2.125,0.60938 3.125,0.70313 4.17188,0.70313 h 2.29687 c 0.5,0 0.65625,-0.17187 0.65625,-0.67187 v -1.73438 c 0,-0.5 -0.15625,-0.6875 -0.65625,-0.6875 h -10 c -0.5,0 -0.65625,0.1875 -0.65625,0.6875 v 1.59375 c 0,0.53125 0.0625,0.6875 0.5,0.89063 l 5.14063,2.64062 -5.15625,2.625 c -0.40625,0.1875 -0.48438,0.40625 -0.48438,0.9375 v 1.5 c 0,0.51562 0.15625,0.67188 0.65625,0.67188 h 10 c 0.5,0 0.65625,-0.15626 0.65625,-0.67188 z m 0.23438,-18.36328 c 0,-3.14063 -1.70313,-4.89063 -4.4375,-4.89063 h -2.90625 c -2.73438,0 -4.45313,1.75 -4.45313,4.89063 0,3.15625 1.71875,4.89062 4.45313,4.89062 h 2.90625 c 2.73437,0 4.4375,-1.73437 4.4375,-4.89062 z m -2.78125,0 c 0,1.125 -0.53125,1.75 -1.53125,1.75 h -3.15625 c -1,0 -1.53125,-0.625 -1.53125,-1.75 0,-1.09375 0.53125,-1.73438 1.53125,-1.73438 h 3.15625 c 1,0 1.53125,0.64063 1.53125,1.73438 z m 2.54687,-10.46094 v -1.79687 c 0,-0.51563 -0.17187,-0.67188 -0.67187,-0.67188 h -7.875 v -2.375 c 0,-0.51562 -0.15625,-0.67187 -0.67188,-0.67187 h -1.42187 c -0.5,0 -0.67188,0.15625 -0.67188,0.67187 v 7.89063 c 0,0.51562 0.17188,0.67187 0.67188,0.67187 h 1.42187 c 0.51563,0 0.67188,-0.15625 0.67188,-0.67187 v -2.375 h 7.875 c 0.5,0 0.67187,-0.15625 0.67187,-0.67188 z m 0,-8.44922 v -6.8125 c 0,-0.5 -0.17187,-0.67187 -0.67187,-0.67187 h -1.45313 c -0.5,0 -0.67187,0.17187 -0.67187,0.67187 v 4.34375 h -1.51563 v -3.35937 c 0,-0.51563 -0.1875,-0.6875 -0.6875,-0.6875 h -1.42187 c -0.51563,0 -0.6875,0.17187 -0.6875,0.6875 v 3.35937 h -1.4375 v -4.20312 c 0,-0.51563 -0.15625,-0.6875 -0.67188,-0.6875 h -1.42187 c -0.5,0 -0.67188,0.17187 -0.67188,0.6875 v 6.67187 c 0,0.51563 0.17188,0.67188 0.67188,0.67188 h 9.96875 c 0.5,0 0.67187,-0.15625 0.67187,-0.67188 z m 0,0"
           style="fill:#ffffff;fill-opacity:1;fill-rule:nonzero;stroke:none;stroke-width:1.33333"
           aria-label="REMOTE" />
      </g>
    </g>
  </g>
</svg>
